<svg xmlns="http://www.w3.org/2000/svg" width="900" height="360" viewBox="0 0 900 360">
  <rect width="900" height="360" fill="#f5efe2" />
  <rect x="40" y="40" width="820" height="280" fill="#fffaf0" stroke="#66513a" />
  <polyline fill="none" stroke="#bf5b04" stroke-width="3" points="40.00,40.00 53.67,60.18 67.33,119.25 81.00,119.25 94.67,130.84 108.33,133.17 122.00,158.87 135.67,158.87 149.33,158.87 163.00,160.49 176.67,171.08 190.33,178.90 204.00,185.27 217.67,185.27 231.33,199.16 245.00,237.93 258.67,237.93 272.33,237.93 286.00,237.93 299.67,247.65 313.33,249.43 327.00,249.43 340.67,253.82 354.33,253.82 368.00,253.82 381.67,271.42 395.33,271.42 409.00,273.51 422.67,275.41 436.33,284.43 450.00,284.43 463.67,295.89 477.33,295.89 491.00,295.89 504.67,295.89 518.33,301.14 532.00,301.14 545.67,301.14 559.33,301.14 573.00,301.14 586.67,301.14 600.33,301.14 614.00,302.31 627.67,306.17 641.33,306.17 655.00,306.18 668.67,310.30 682.33,310.30 696.00,319.80 709.67,319.80 723.33,319.80 737.00,319.80 750.67,319.80 764.33,320.00 778.00,320.00 791.67,320.00 805.33,320.00 819.00,320.00 832.67,320.00 846.33,320.00 860.00,320.00" />
  <text x="40" y="24" font-size="18" fill="#3f2d1b">Migas del mejor sitio por vuelo</text>
  <text x="40" y="350" font-size="12" fill="#3f2d1b">Vuelos</text>
  <text x="860" y="24" text-anchor="end" font-size="12" fill="#3f2d1b">Min: 8.45131 | Max: 20.7895</text>
</svg>
