<svg xmlns="http://www.w3.org/2000/svg" width="960" height="1320" viewBox="0 0 960 1320">
  <rect width="960" height="1320" fill="#efe7d6" />
  <text x="24" y="28" font-size="20" fill="#3f2d1b">Bandada 2D por vuelo</text>
  <text x="936" y="28" text-anchor="end" font-size="12" fill="#6e5740">Azul: particulas | Naranja: mejor global</text>
  <g transform="translate(0,0)"><rect x="9.0" y="9.0" width="222.0" height="202.0" rx="10" fill="#fffaf0" stroke="#66513a" /><text x="26" y="24" font-size="15" fill="#3f2d1b">Vuelo 0</text><text x="26" y="38" font-size="11" fill="#6e5740">Best: 33.4162</text><rect x="26" y="42" width="188" height="162" fill="#f5efe2" stroke="#b89f7d" /><text x="26" y="206" font-size="10" fill="#6e5740">x [-2.09, 2.14]</text><text x="214" y="206" text-anchor="end" font-size="10" fill="#6e5740">y [-2.04, 2.02]</text><circle cx="86.68" cy="179.60" r="4.2" fill="#2f6c8f" fill-opacity="0.78" stroke="#163848" stroke-width="0.7" /><circle cx="125.28" cy="144.48" r="4.2" fill="#2f6c8f" fill-opacity="0.78" stroke="#163848" stroke-width="0.7" /><circle cx="34.55" cy="133.38" r="4.2" fill="#2f6c8f" fill-opacity="0.78" stroke="#163848" stroke-width="0.7" /><circle cx="105.01" cy="69.12" r="4.2" fill="#2f6c8f" fill-opacity="0.78" stroke="#163848" stroke-width="0.7" /><circle cx="141.95" cy="49.36" r="4.2" fill="#2f6c8f" fill-opacity="0.78" stroke="#163848" stroke-width="0.7" /><circle cx="205.45" cy="196.64" r="4.2" fill="#2f6c8f" fill-opacity="0.78" stroke="#163848" stroke-width="0.7" /><circle cx="53.98" cy="185.00" r="4.2" fill="#2f6c8f" fill-opacity="0.78" stroke="#163848" stroke-width="0.7" /><circle cx="60.62" cy="109.20" r="4.2" fill="#2f6c8f" fill-opacity="0.78" stroke="#163848" stroke-width="0.7" /><circle cx="127.44" cy="193.99" r="4.2" fill="#2f6c8f" fill-opacity="0.78" stroke="#163848" stroke-width="0.7" /><circle cx="151.59" cy="134.37" r="4.2" fill="#2f6c8f" fill-opacity="0.78" stroke="#163848" stroke-width="0.7" /><circle cx="110.23" cy="155.26" r="4.2" fill="#2f6c8f" fill-opacity="0.78" stroke="#163848" stroke-width="0.7" /><circle cx="72.16" cy="110.37" r="4.2" fill="#2f6c8f" fill-opacity="0.78" stroke="#163848" stroke-width="0.7" /><circle cx="125.28" cy="144.48" r="7" fill="#e07a1f" stroke="#8b3d09" stroke-width="1.5" /><circle cx="125.28" cy="144.48" r="11" fill="none" stroke="#e07a1f" stroke-width="1.2" stroke-dasharray="4 3" /></g><g transform="translate(240,0)"><rect x="9.0" y="9.0" width="222.0" height="202.0" rx="10" fill="#fffaf0" stroke="#66513a" /><text x="266" y="24" font-size="15" fill="#3f2d1b">Vuelo 1</text><text x="266" y="38" font-size="11" fill="#6e5740">Best: 2.13492</text><rect x="266" y="42" width="188" height="162" fill="#f5efe2" stroke="#b89f7d" /><text x="266" y="206" font-size="10" fill="#6e5740">x [-2.09, 2.14]</text><text x="454" y="206" text-anchor="end" font-size="10" fill="#6e5740">y [-2.04, 2.02]</text><circle cx="353.27" cy="192.11" r="4.2" fill="#2f6c8f" fill-opacity="0.78" stroke="#163848" stroke-width="0.7" /><circle cx="342.75" cy="144.14" r="4.2" fill="#2f6c8f" fill-opacity="0.78" stroke="#163848" stroke-width="0.7" /><circle cx="310.96" cy="162.93" r="4.2" fill="#2f6c8f" fill-opacity="0.78" stroke="#163848" stroke-width="0.7" /><circle cx="336.64" cy="101.80" r="4.2" fill="#2f6c8f" fill-opacity="0.78" stroke="#163848" stroke-width="0.7" /><circle cx="372.95" cy="82.05" r="4.2" fill="#2f6c8f" fill-opacity="0.78" stroke="#163848" stroke-width="0.7" /><circle cx="409.04" cy="163.95" r="4.2" fill="#2f6c8f" fill-opacity="0.78" stroke="#163848" stroke-width="0.7" /><circle cx="330.39" cy="152.31" r="4.2" fill="#2f6c8f" fill-opacity="0.78" stroke="#163848" stroke-width="0.7" /><circle cx="337.03" cy="141.88" r="4.2" fill="#2f6c8f" fill-opacity="0.78" stroke="#163848" stroke-width="0.7" /><circle cx="344.56" cy="161.30" r="4.2" fill="#2f6c8f" fill-opacity="0.78" stroke="#163848" stroke-width="0.7" /><circle cx="371.04" cy="145.44" r="4.2" fill="#2f6c8f" fill-opacity="0.78" stroke="#163848" stroke-width="0.7" /><circle cx="376.73" cy="129.97" r="4.2" fill="#2f6c8f" fill-opacity="0.78" stroke="#163848" stroke-width="0.7" /><circle cx="348.57" cy="117.29" r="4.2" fill="#2f6c8f" fill-opacity="0.78" stroke="#163848" stroke-width="0.7" /><circle cx="348.57" cy="117.29" r="7" fill="#e07a1f" stroke="#8b3d09" stroke-width="1.5" /><circle cx="348.57" cy="117.29" r="11" fill="none" stroke="#e07a1f" stroke-width="1.2" stroke-dasharray="4 3" /></g><g transform="translate(480,0)"><rect x="9.0" y="9.0" width="222.0" height="202.0" rx="10" fill="#fffaf0" stroke="#66513a" /><text x="506" y="24" font-size="15" fill="#3f2d1b">Vuelo 2</text><text x="506" y="38" font-size="11" fill="#6e5740">Best: 0.118844</text><rect x="506" y="42" width="188" height="162" fill="#f5efe2" stroke="#b89f7d" /><text x="506" y="206" font-size="10" fill="#6e5740">x [-2.09, 2.14]</text><text x="694" y="206" text-anchor="end" font-size="10" fill="#6e5740">y [-2.04, 2.02]</text><circle cx="604.82" cy="181.68" r="4.2" fill="#2f6c8f" fill-opacity="0.78" stroke="#163848" stroke-width="0.7" /><circle cx="576.02" cy="121.90" r="4.2" fill="#2f6c8f" fill-opacity="0.78" stroke="#163848" stroke-width="0.7" /><circle cx="587.37" cy="151.11" r="4.2" fill="#2f6c8f" fill-opacity="0.78" stroke="#163848" stroke-width="0.7" /><circle cx="582.27" cy="134.49" r="4.2" fill="#2f6c8f" fill-opacity="0.78" stroke="#163848" stroke-width="0.7" /><circle cx="581.06" cy="108.16" r="4.2" fill="#2f6c8f" fill-opacity="0.78" stroke="#163848" stroke-width="0.7" /><circle cx="612.63" cy="131.26" r="4.2" fill="#2f6c8f" fill-opacity="0.78" stroke="#163848" stroke-width="0.7" /><circle cx="606.81" cy="119.63" r="4.2" fill="#2f6c8f" fill-opacity="0.78" stroke="#163848" stroke-width="0.7" /><circle cx="603.84" cy="157.98" r="4.2" fill="#2f6c8f" fill-opacity="0.78" stroke="#163848" stroke-width="0.7" /><circle cx="568.90" cy="128.62" r="4.2" fill="#2f6c8f" fill-opacity="0.78" stroke="#163848" stroke-width="0.7" /><circle cx="582.77" cy="112.75" r="4.2" fill="#2f6c8f" fill-opacity="0.78" stroke="#163848" stroke-width="0.7" /><circle cx="628.17" cy="104.78" r="4.2" fill="#2f6c8f" fill-opacity="0.78" stroke="#163848" stroke-width="0.7" /><circle cx="614.06" cy="122.13" r="4.2" fill="#2f6c8f" fill-opacity="0.78" stroke="#163848" stroke-width="0.7" /><circle cx="628.17" cy="104.78" r="7" fill="#e07a1f" stroke="#8b3d09" stroke-width="1.5" /><circle cx="628.17" cy="104.78" r="11" fill="none" stroke="#e07a1f" stroke-width="1.2" stroke-dasharray="4 3" /></g><g transform="translate(720,0)"><rect x="9.0" y="9.0" width="222.0" height="202.0" rx="10" fill="#fffaf0" stroke="#66513a" /><text x="746" y="24" font-size="15" fill="#3f2d1b">Vuelo 3</text><text x="746" y="38" font-size="11" fill="#6e5740">Best: 0.0240732</text><rect x="746" y="42" width="188" height="162" fill="#f5efe2" stroke="#b89f7d" /><text x="746" y="206" font-size="10" fill="#6e5740">x [-2.09, 2.14]</text><text x="934" y="206" text-anchor="end" font-size="10" fill="#6e5740">y [-2.04, 2.02]</text><circle cx="872.11" cy="161.02" r="4.2" fill="#2f6c8f" fill-opacity="0.78" stroke="#163848" stroke-width="0.7" /><circle cx="834.78" cy="101.63" r="4.2" fill="#2f6c8f" fill-opacity="0.78" stroke="#163848" stroke-width="0.7" /><circle cx="863.78" cy="131.29" r="4.2" fill="#2f6c8f" fill-opacity="0.78" stroke="#163848" stroke-width="0.7" /><circle cx="823.12" cy="101.80" r="4.2" fill="#2f6c8f" fill-opacity="0.78" stroke="#163848" stroke-width="0.7" /><circle cx="854.49" cy="124.34" r="4.2" fill="#2f6c8f" fill-opacity="0.78" stroke="#163848" stroke-width="0.7" /><circle cx="847.53" cy="98.58" r="4.2" fill="#2f6c8f" fill-opacity="0.78" stroke="#163848" stroke-width="0.7" /><circle cx="880.39" cy="86.94" r="4.2" fill="#2f6c8f" fill-opacity="0.78" stroke="#163848" stroke-width="0.7" /><circle cx="857.09" cy="125.29" r="4.2" fill="#2f6c8f" fill-opacity="0.78" stroke="#163848" stroke-width="0.7" /><circle cx="845.31" cy="104.56" r="4.2" fill="#2f6c8f" fill-opacity="0.78" stroke="#163848" stroke-width="0.7" /><circle cx="824.54" cy="80.49" r="4.2" fill="#2f6c8f" fill-opacity="0.78" stroke="#163848" stroke-width="0.7" /><circle cx="876.18" cy="87.15" r="4.2" fill="#2f6c8f" fill-opacity="0.78" stroke="#163848" stroke-width="0.7" /><circle cx="880.65" cy="118.83" r="4.2" fill="#2f6c8f" fill-opacity="0.78" stroke="#163848" stroke-width="0.7" /><circle cx="880.39" cy="86.94" r="7" fill="#e07a1f" stroke="#8b3d09" stroke-width="1.5" /><circle cx="880.39" cy="86.94" r="11" fill="none" stroke="#e07a1f" stroke-width="1.2" stroke-dasharray="4 3" /></g><g transform="translate(0,220)"><rect x="9.0" y="9.0" width="222.0" height="202.0" rx="10" fill="#fffaf0" stroke="#66513a" /><text x="26" y="24" font-size="15" fill="#3f2d1b">Vuelo 4</text><text x="26" y="38" font-size="11" fill="#6e5740">Best: 0.0240732</text><rect x="26" y="262" width="188" height="162" fill="#f5efe2" stroke="#b89f7d" /><text x="26" y="206" font-size="10" fill="#6e5740">x [-2.09, 2.14]</text><text x="214" y="206" text-anchor="end" font-size="10" fill="#6e5740">y [-2.04, 2.02]</text><circle cx="164.97" cy="348.33" r="4.2" fill="#2f6c8f" fill-opacity="0.78" stroke="#163848" stroke-width="0.7" /><circle cx="138.29" cy="309.97" r="4.2" fill="#2f6c8f" fill-opacity="0.78" stroke="#163848" stroke-width="0.7" /><circle cx="180.19" cy="318.60" r="4.2" fill="#2f6c8f" fill-opacity="0.78" stroke="#163848" stroke-width="0.7" /><circle cx="139.54" cy="289.12" r="4.2" fill="#2f6c8f" fill-opacity="0.78" stroke="#163848" stroke-width="0.7" /><circle cx="170.90" cy="330.49" r="4.2" fill="#2f6c8f" fill-opacity="0.78" stroke="#163848" stroke-width="0.7" /><circle cx="163.95" cy="332.61" r="4.2" fill="#2f6c8f" fill-opacity="0.78" stroke="#163848" stroke-width="0.7" /><circle cx="183.91" cy="284.06" r="4.2" fill="#2f6c8f" fill-opacity="0.78" stroke="#163848" stroke-width="0.7" /><circle cx="173.50" cy="312.61" r="4.2" fill="#2f6c8f" fill-opacity="0.78" stroke="#163848" stroke-width="0.7" /><circle cx="161.73" cy="307.30" r="4.2" fill="#2f6c8f" fill-opacity="0.78" stroke="#163848" stroke-width="0.7" /><circle cx="140.95" cy="317.03" r="4.2" fill="#2f6c8f" fill-opacity="0.78" stroke="#163848" stroke-width="0.7" /><circle cx="162.13" cy="319.50" r="4.2" fill="#2f6c8f" fill-opacity="0.78" stroke="#163848" stroke-width="0.7" /><circle cx="167.75" cy="306.14" r="4.2" fill="#2f6c8f" fill-opacity="0.78" stroke="#163848" stroke-width="0.7" /><circle cx="160.39" cy="306.94" r="7" fill="#e07a1f" stroke="#8b3d09" stroke-width="1.5" /><circle cx="160.39" cy="306.94" r="11" fill="none" stroke="#e07a1f" stroke-width="1.2" stroke-dasharray="4 3" /></g><g transform="translate(240,220)"><rect x="9.0" y="9.0" width="222.0" height="202.0" rx="10" fill="#fffaf0" stroke="#66513a" /><text x="266" y="24" font-size="15" fill="#3f2d1b">Vuelo 5</text><text x="266" y="38" font-size="11" fill="#6e5740">Best: 0.0240732</text><rect x="266" y="262" width="188" height="162" fill="#f5efe2" stroke="#b89f7d" /><text x="266" y="206" font-size="10" fill="#6e5740">x [-2.09, 2.14]</text><text x="454" y="206" text-anchor="end" font-size="10" fill="#6e5740">y [-2.04, 2.02]</text><circle cx="410.71" cy="315.64" r="4.2" fill="#2f6c8f" fill-opacity="0.78" stroke="#163848" stroke-width="0.7" /><circle cx="386.54" cy="328.81" r="4.2" fill="#2f6c8f" fill-opacity="0.78" stroke="#163848" stroke-width="0.7" /><circle cx="388.76" cy="313.05" r="4.2" fill="#2f6c8f" fill-opacity="0.78" stroke="#163848" stroke-width="0.7" /><circle cx="367.51" cy="296.24" r="4.2" fill="#2f6c8f" fill-opacity="0.78" stroke="#163848" stroke-width="0.7" /><circle cx="421.87" cy="305.90" r="4.2" fill="#2f6c8f" fill-opacity="0.78" stroke="#163848" stroke-width="0.7" /><circle cx="387.47" cy="330.15" r="4.2" fill="#2f6c8f" fill-opacity="0.78" stroke="#163848" stroke-width="0.7" /><circle cx="387.49" cy="293.96" r="4.2" fill="#2f6c8f" fill-opacity="0.78" stroke="#163848" stroke-width="0.7" /><circle cx="417.44" cy="327.75" r="4.2" fill="#2f6c8f" fill-opacity="0.78" stroke="#163848" stroke-width="0.7" /><circle cx="425.49" cy="294.94" r="4.2" fill="#2f6c8f" fill-opacity="0.78" stroke="#163848" stroke-width="0.7" /><circle cx="383.39" cy="330.42" r="4.2" fill="#2f6c8f" fill-opacity="0.78" stroke="#163848" stroke-width="0.7" /><circle cx="393.99" cy="312.34" r="4.2" fill="#2f6c8f" fill-opacity="0.78" stroke="#163848" stroke-width="0.7" /><circle cx="371.34" cy="338.83" r="4.2" fill="#2f6c8f" fill-opacity="0.78" stroke="#163848" stroke-width="0.7" /><circle cx="400.39" cy="306.94" r="7" fill="#e07a1f" stroke="#8b3d09" stroke-width="1.5" /><circle cx="400.39" cy="306.94" r="11" fill="none" stroke="#e07a1f" stroke-width="1.2" stroke-dasharray="4 3" /></g><g transform="translate(480,220)"><rect x="9.0" y="9.0" width="222.0" height="202.0" rx="10" fill="#fffaf0" stroke="#66513a" /><text x="506" y="24" font-size="15" fill="#3f2d1b">Vuelo 6</text><text x="506" y="38" font-size="11" fill="#6e5740">Best: 0.0240732</text><rect x="506" y="262" width="188" height="162" fill="#f5efe2" stroke="#b89f7d" /><text x="506" y="206" font-size="10" fill="#6e5740">x [-2.09, 2.14]</text><text x="694" y="206" text-anchor="end" font-size="10" fill="#6e5740">y [-2.04, 2.02]</text><circle cx="638.19" cy="290.73" r="4.2" fill="#2f6c8f" fill-opacity="0.78" stroke="#163848" stroke-width="0.7" /><circle cx="642.73" cy="333.05" r="4.2" fill="#2f6c8f" fill-opacity="0.78" stroke="#163848" stroke-width="0.7" /><circle cx="620.00" cy="299.85" r="4.2" fill="#2f6c8f" fill-opacity="0.78" stroke="#163848" stroke-width="0.7" /><circle cx="631.02" cy="328.93" r="4.2" fill="#2f6c8f" fill-opacity="0.78" stroke="#163848" stroke-width="0.7" /><circle cx="625.46" cy="304.72" r="4.2" fill="#2f6c8f" fill-opacity="0.78" stroke="#163848" stroke-width="0.7" /><circle cx="626.64" cy="297.46" r="4.2" fill="#2f6c8f" fill-opacity="0.78" stroke="#163848" stroke-width="0.7" /><circle cx="615.01" cy="319.75" r="4.2" fill="#2f6c8f" fill-opacity="0.78" stroke="#163848" stroke-width="0.7" /><circle cx="637.54" cy="359.20" r="4.2" fill="#2f6c8f" fill-opacity="0.78" stroke="#163848" stroke-width="0.7" /><circle cx="640.95" cy="293.44" r="4.2" fill="#2f6c8f" fill-opacity="0.78" stroke="#163848" stroke-width="0.7" /><circle cx="639.90" cy="300.47" r="4.2" fill="#2f6c8f" fill-opacity="0.78" stroke="#163848" stroke-width="0.7" /><circle cx="631.08" cy="307.11" r="4.2" fill="#2f6c8f" fill-opacity="0.78" stroke="#163848" stroke-width="0.7" /><circle cx="624.33" cy="354.69" r="4.2" fill="#2f6c8f" fill-opacity="0.78" stroke="#163848" stroke-width="0.7" /><circle cx="640.39" cy="306.94" r="7" fill="#e07a1f" stroke="#8b3d09" stroke-width="1.5" /><circle cx="640.39" cy="306.94" r="11" fill="none" stroke="#e07a1f" stroke-width="1.2" stroke-dasharray="4 3" /></g><g transform="translate(720,220)"><rect x="9.0" y="9.0" width="222.0" height="202.0" rx="10" fill="#fffaf0" stroke="#66513a" /><text x="746" y="24" font-size="15" fill="#3f2d1b">Vuelo 7</text><text x="746" y="38" font-size="11" fill="#6e5740">Best: 0.0240732</text><rect x="746" y="262" width="188" height="162" fill="#f5efe2" stroke="#b89f7d" /><text x="746" y="206" font-size="10" fill="#6e5740">x [-2.09, 2.14]</text><text x="934" y="206" text-anchor="end" font-size="10" fill="#6e5740">y [-2.04, 2.02]</text><circle cx="872.84" cy="280.42" r="4.2" fill="#2f6c8f" fill-opacity="0.78" stroke="#163848" stroke-width="0.7" /><circle cx="886.30" cy="300.81" r="4.2" fill="#2f6c8f" fill-opacity="0.78" stroke="#163848" stroke-width="0.7" /><circle cx="857.19" cy="311.18" r="4.2" fill="#2f6c8f" fill-opacity="0.78" stroke="#163848" stroke-width="0.7" /><circle cx="902.43" cy="321.84" r="4.2" fill="#2f6c8f" fill-opacity="0.78" stroke="#163848" stroke-width="0.7" /><circle cx="860.15" cy="311.64" r="4.2" fill="#2f6c8f" fill-opacity="0.78" stroke="#163848" stroke-width="0.7" /><circle cx="874.63" cy="320.24" r="4.2" fill="#2f6c8f" fill-opacity="0.78" stroke="#163848" stroke-width="0.7" /><circle cx="863.41" cy="321.13" r="4.2" fill="#2f6c8f" fill-opacity="0.78" stroke="#163848" stroke-width="0.7" /><circle cx="860.59" cy="362.09" r="4.2" fill="#2f6c8f" fill-opacity="0.78" stroke="#163848" stroke-width="0.7" /><circle cx="863.89" cy="316.93" r="4.2" fill="#2f6c8f" fill-opacity="0.78" stroke="#163848" stroke-width="0.7" /><circle cx="877.57" cy="297.38" r="4.2" fill="#2f6c8f" fill-opacity="0.78" stroke="#163848" stroke-width="0.7" /><circle cx="868.05" cy="325.32" r="4.2" fill="#2f6c8f" fill-opacity="0.78" stroke="#163848" stroke-width="0.7" /><circle cx="882.20" cy="331.96" r="4.2" fill="#2f6c8f" fill-opacity="0.78" stroke="#163848" stroke-width="0.7" /><circle cx="880.39" cy="306.94" r="7" fill="#e07a1f" stroke="#8b3d09" stroke-width="1.5" /><circle cx="880.39" cy="306.94" r="11" fill="none" stroke="#e07a1f" stroke-width="1.2" stroke-dasharray="4 3" /></g><g transform="translate(0,440)"><rect x="9.0" y="9.0" width="222.0" height="202.0" rx="10" fill="#fffaf0" stroke="#66513a" /><text x="26" y="24" font-size="15" fill="#3f2d1b">Vuelo 8</text><text x="26" y="38" font-size="11" fill="#6e5740">Best: 0.0240732</text><rect x="26" y="482" width="188" height="162" fill="#f5efe2" stroke="#b89f7d" /><text x="26" y="206" font-size="10" fill="#6e5740">x [-2.09, 2.14]</text><text x="214" y="206" text-anchor="end" font-size="10" fill="#6e5740">y [-2.04, 2.02]</text><circle cx="162.09" cy="533.11" r="4.2" fill="#2f6c8f" fill-opacity="0.78" stroke="#163848" stroke-width="0.7" /><circle cx="150.51" cy="541.21" r="4.2" fill="#2f6c8f" fill-opacity="0.78" stroke="#163848" stroke-width="0.7" /><circle cx="173.60" cy="536.78" r="4.2" fill="#2f6c8f" fill-opacity="0.78" stroke="#163848" stroke-width="0.7" /><circle cx="169.79" cy="534.25" r="4.2" fill="#2f6c8f" fill-opacity="0.78" stroke="#163848" stroke-width="0.7" /><circle cx="161.25" cy="549.38" r="4.2" fill="#2f6c8f" fill-opacity="0.78" stroke="#163848" stroke-width="0.7" /><circle cx="168.47" cy="541.02" r="4.2" fill="#2f6c8f" fill-opacity="0.78" stroke="#163848" stroke-width="0.7" /><circle cx="164.42" cy="523.94" r="4.2" fill="#2f6c8f" fill-opacity="0.78" stroke="#163848" stroke-width="0.7" /><circle cx="142.80" cy="549.41" r="4.2" fill="#2f6c8f" fill-opacity="0.78" stroke="#163848" stroke-width="0.7" /><circle cx="176.79" cy="532.97" r="4.2" fill="#2f6c8f" fill-opacity="0.78" stroke="#163848" stroke-width="0.7" /><circle cx="150.19" cy="521.47" r="4.2" fill="#2f6c8f" fill-opacity="0.78" stroke="#163848" stroke-width="0.7" /><circle cx="156.48" cy="542.29" r="4.2" fill="#2f6c8f" fill-opacity="0.78" stroke="#163848" stroke-width="0.7" /><circle cx="173.64" cy="520.11" r="4.2" fill="#2f6c8f" fill-opacity="0.78" stroke="#163848" stroke-width="0.7" /><circle cx="160.39" cy="526.94" r="7" fill="#e07a1f" stroke="#8b3d09" stroke-width="1.5" /><circle cx="160.39" cy="526.94" r="11" fill="none" stroke="#e07a1f" stroke-width="1.2" stroke-dasharray="4 3" /></g><g transform="translate(240,440)"><rect x="9.0" y="9.0" width="222.0" height="202.0" rx="10" fill="#fffaf0" stroke="#66513a" /><text x="266" y="24" font-size="15" fill="#3f2d1b">Vuelo 9</text><text x="266" y="38" font-size="11" fill="#6e5740">Best: 0.0240732</text><rect x="266" y="482" width="188" height="162" fill="#f5efe2" stroke="#b89f7d" /><text x="266" y="206" font-size="10" fill="#6e5740">x [-2.09, 2.14]</text><text x="454" y="206" text-anchor="end" font-size="10" fill="#6e5740">y [-2.04, 2.02]</text><circle cx="408.50" cy="553.55" r="4.2" fill="#2f6c8f" fill-opacity="0.78" stroke="#163848" stroke-width="0.7" /><circle cx="388.35" cy="539.54" r="4.2" fill="#2f6c8f" fill-opacity="0.78" stroke="#163848" stroke-width="0.7" /><circle cx="389.11" cy="532.77" r="4.2" fill="#2f6c8f" fill-opacity="0.78" stroke="#163848" stroke-width="0.7" /><circle cx="373.38" cy="539.01" r="4.2" fill="#2f6c8f" fill-opacity="0.78" stroke="#163848" stroke-width="0.7" /><circle cx="412.81" cy="560.54" r="4.2" fill="#2f6c8f" fill-opacity="0.78" stroke="#163848" stroke-width="0.7" /><circle cx="389.74" cy="528.85" r="4.2" fill="#2f6c8f" fill-opacity="0.78" stroke="#163848" stroke-width="0.7" /><circle cx="409.96" cy="520.22" r="4.2" fill="#2f6c8f" fill-opacity="0.78" stroke="#163848" stroke-width="0.7" /><circle cx="411.05" cy="516.72" r="4.2" fill="#2f6c8f" fill-opacity="0.78" stroke="#163848" stroke-width="0.7" /><circle cx="433.05" cy="525.21" r="4.2" fill="#2f6c8f" fill-opacity="0.78" stroke="#163848" stroke-width="0.7" /><circle cx="398.31" cy="554.16" r="4.2" fill="#2f6c8f" fill-opacity="0.78" stroke="#163848" stroke-width="0.7" /><circle cx="397.94" cy="542.61" r="4.2" fill="#2f6c8f" fill-opacity="0.78" stroke="#163848" stroke-width="0.7" /><circle cx="377.23" cy="537.13" r="4.2" fill="#2f6c8f" fill-opacity="0.78" stroke="#163848" stroke-width="0.7" /><circle cx="400.39" cy="526.94" r="7" fill="#e07a1f" stroke="#8b3d09" stroke-width="1.5" /><circle cx="400.39" cy="526.94" r="11" fill="none" stroke="#e07a1f" stroke-width="1.2" stroke-dasharray="4 3" /></g><g transform="translate(480,440)"><rect x="9.0" y="9.0" width="222.0" height="202.0" rx="10" fill="#fffaf0" stroke="#66513a" /><text x="506" y="24" font-size="15" fill="#3f2d1b">Vuelo 10</text><text x="506" y="38" font-size="11" fill="#6e5740">Best: 0.0240732</text><rect x="506" y="482" width="188" height="162" fill="#f5efe2" stroke="#b89f7d" /><text x="506" y="206" font-size="10" fill="#6e5740">x [-2.09, 2.14]</text><text x="694" y="206" text-anchor="end" font-size="10" fill="#6e5740">y [-2.04, 2.02]</text><circle cx="644.89" cy="530.85" r="4.2" fill="#2f6c8f" fill-opacity="0.78" stroke="#163848" stroke-width="0.7" /><circle cx="632.55" cy="536.05" r="4.2" fill="#2f6c8f" fill-opacity="0.78" stroke="#163848" stroke-width="0.7" /><circle cx="630.68" cy="526.18" r="4.2" fill="#2f6c8f" fill-opacity="0.78" stroke="#163848" stroke-width="0.7" /><circle cx="633.66" cy="542.61" r="4.2" fill="#2f6c8f" fill-opacity="0.78" stroke="#163848" stroke-width="0.7" /><circle cx="617.40" cy="554.80" r="4.2" fill="#2f6c8f" fill-opacity="0.78" stroke="#163848" stroke-width="0.7" /><circle cx="628.32" cy="531.28" r="4.2" fill="#2f6c8f" fill-opacity="0.78" stroke="#163848" stroke-width="0.7" /><circle cx="648.48" cy="533.20" r="4.2" fill="#2f6c8f" fill-opacity="0.78" stroke="#163848" stroke-width="0.7" /><circle cx="633.10" cy="530.61" r="4.2" fill="#2f6c8f" fill-opacity="0.78" stroke="#163848" stroke-width="0.7" /><circle cx="653.03" cy="523.53" r="4.2" fill="#2f6c8f" fill-opacity="0.78" stroke="#163848" stroke-width="0.7" /><circle cx="622.50" cy="555.69" r="4.2" fill="#2f6c8f" fill-opacity="0.78" stroke="#163848" stroke-width="0.7" /><circle cx="629.22" cy="537.74" r="4.2" fill="#2f6c8f" fill-opacity="0.78" stroke="#163848" stroke-width="0.7" /><circle cx="626.87" cy="546.74" r="4.2" fill="#2f6c8f" fill-opacity="0.78" stroke="#163848" stroke-width="0.7" /><circle cx="640.39" cy="526.94" r="7" fill="#e07a1f" stroke="#8b3d09" stroke-width="1.5" /><circle cx="640.39" cy="526.94" r="11" fill="none" stroke="#e07a1f" stroke-width="1.2" stroke-dasharray="4 3" /></g><g transform="translate(720,440)"><rect x="9.0" y="9.0" width="222.0" height="202.0" rx="10" fill="#fffaf0" stroke="#66513a" /><text x="746" y="24" font-size="15" fill="#3f2d1b">Vuelo 11</text><text x="746" y="38" font-size="11" fill="#6e5740">Best: 0.0240732</text><rect x="746" y="482" width="188" height="162" fill="#f5efe2" stroke="#b89f7d" /><text x="746" y="206" font-size="10" fill="#6e5740">x [-2.09, 2.14]</text><text x="934" y="206" text-anchor="end" font-size="10" fill="#6e5740">y [-2.04, 2.02]</text><circle cx="877.68" cy="517.74" r="4.2" fill="#2f6c8f" fill-opacity="0.78" stroke="#163848" stroke-width="0.7" /><circle cx="879.43" cy="530.50" r="4.2" fill="#2f6c8f" fill-opacity="0.78" stroke="#163848" stroke-width="0.7" /><circle cx="885.99" cy="527.04" r="4.2" fill="#2f6c8f" fill-opacity="0.78" stroke="#163848" stroke-width="0.7" /><circle cx="893.49" cy="537.09" r="4.2" fill="#2f6c8f" fill-opacity="0.78" stroke="#163848" stroke-width="0.7" /><circle cx="846.05" cy="522.11" r="4.2" fill="#2f6c8f" fill-opacity="0.78" stroke="#163848" stroke-width="0.7" /><circle cx="882.75" cy="544.88" r="4.2" fill="#2f6c8f" fill-opacity="0.78" stroke="#163848" stroke-width="0.7" /><circle cx="864.90" cy="529.61" r="4.2" fill="#2f6c8f" fill-opacity="0.78" stroke="#163848" stroke-width="0.7" /><circle cx="858.89" cy="563.30" r="4.2" fill="#2f6c8f" fill-opacity="0.78" stroke="#163848" stroke-width="0.7" /><circle cx="862.89" cy="524.39" r="4.2" fill="#2f6c8f" fill-opacity="0.78" stroke="#163848" stroke-width="0.7" /><circle cx="876.98" cy="523.00" r="4.2" fill="#2f6c8f" fill-opacity="0.78" stroke="#163848" stroke-width="0.7" /><circle cx="867.67" cy="537.43" r="4.2" fill="#2f6c8f" fill-opacity="0.78" stroke="#163848" stroke-width="0.7" /><circle cx="895.60" cy="526.13" r="4.2" fill="#2f6c8f" fill-opacity="0.78" stroke="#163848" stroke-width="0.7" /><circle cx="880.39" cy="526.94" r="7" fill="#e07a1f" stroke="#8b3d09" stroke-width="1.5" /><circle cx="880.39" cy="526.94" r="11" fill="none" stroke="#e07a1f" stroke-width="1.2" stroke-dasharray="4 3" /></g><g transform="translate(0,660)"><rect x="9.0" y="9.0" width="222.0" height="202.0" rx="10" fill="#fffaf0" stroke="#66513a" /><text x="26" y="24" font-size="15" fill="#3f2d1b">Vuelo 12</text><text x="26" y="38" font-size="11" fill="#6e5740">Best: 0.0184444</text><rect x="26" y="702" width="188" height="162" fill="#f5efe2" stroke="#b89f7d" /><text x="26" y="206" font-size="10" fill="#6e5740">x [-2.09, 2.14]</text><text x="214" y="206" text-anchor="end" font-size="10" fill="#6e5740">y [-2.04, 2.02]</text><circle cx="161.57" cy="761.73" r="4.2" fill="#2f6c8f" fill-opacity="0.78" stroke="#163848" stroke-width="0.7" /><circle cx="164.34" cy="743.89" r="4.2" fill="#2f6c8f" fill-opacity="0.78" stroke="#163848" stroke-width="0.7" /><circle cx="170.57" cy="747.64" r="4.2" fill="#2f6c8f" fill-opacity="0.78" stroke="#163848" stroke-width="0.7" /><circle cx="153.29" cy="751.73" r="4.2" fill="#2f6c8f" fill-opacity="0.78" stroke="#163848" stroke-width="0.7" /><circle cx="162.46" cy="774.80" r="4.2" fill="#2f6c8f" fill-opacity="0.78" stroke="#163848" stroke-width="0.7" /><circle cx="162.59" cy="757.98" r="4.2" fill="#2f6c8f" fill-opacity="0.78" stroke="#163848" stroke-width="0.7" /><circle cx="137.06" cy="742.04" r="4.2" fill="#2f6c8f" fill-opacity="0.78" stroke="#163848" stroke-width="0.7" /><circle cx="140.28" cy="750.61" r="4.2" fill="#2f6c8f" fill-opacity="0.78" stroke="#163848" stroke-width="0.7" /><circle cx="140.35" cy="746.34" r="4.2" fill="#2f6c8f" fill-opacity="0.78" stroke="#163848" stroke-width="0.7" /><circle cx="159.74" cy="733.00" r="4.2" fill="#2f6c8f" fill-opacity="0.78" stroke="#163848" stroke-width="0.7" /><circle cx="166.14" cy="759.90" r="4.2" fill="#2f6c8f" fill-opacity="0.78" stroke="#163848" stroke-width="0.7" /><circle cx="161.95" cy="745.37" r="4.2" fill="#2f6c8f" fill-opacity="0.78" stroke="#163848" stroke-width="0.7" /><circle cx="161.95" cy="745.37" r="7" fill="#e07a1f" stroke="#8b3d09" stroke-width="1.5" /><circle cx="161.95" cy="745.37" r="11" fill="none" stroke="#e07a1f" stroke-width="1.2" stroke-dasharray="4 3" /></g><g transform="translate(240,660)"><rect x="9.0" y="9.0" width="222.0" height="202.0" rx="10" fill="#fffaf0" stroke="#66513a" /><text x="266" y="24" font-size="15" fill="#3f2d1b">Vuelo 13</text><text x="266" y="38" font-size="11" fill="#6e5740">Best: 0.0184444</text><rect x="266" y="702" width="188" height="162" fill="#f5efe2" stroke="#b89f7d" /><text x="266" y="206" font-size="10" fill="#6e5740">x [-2.09, 2.14]</text><text x="454" y="206" text-anchor="end" font-size="10" fill="#6e5740">y [-2.04, 2.02]</text><circle cx="404.52" cy="760.84" r="4.2" fill="#2f6c8f" fill-opacity="0.78" stroke="#163848" stroke-width="0.7" /><circle cx="401.02" cy="749.51" r="4.2" fill="#2f6c8f" fill-opacity="0.78" stroke="#163848" stroke-width="0.7" /><circle cx="408.03" cy="745.94" r="4.2" fill="#2f6c8f" fill-opacity="0.78" stroke="#163848" stroke-width="0.7" /><circle cx="392.24" cy="763.89" r="4.2" fill="#2f6c8f" fill-opacity="0.78" stroke="#163848" stroke-width="0.7" /><circle cx="425.95" cy="774.01" r="4.2" fill="#2f6c8f" fill-opacity="0.78" stroke="#163848" stroke-width="0.7" /><circle cx="394.53" cy="734.79" r="4.2" fill="#2f6c8f" fill-opacity="0.78" stroke="#163848" stroke-width="0.7" /><circle cx="413.47" cy="746.25" r="4.2" fill="#2f6c8f" fill-opacity="0.78" stroke="#163848" stroke-width="0.7" /><circle cx="387.41" cy="738.35" r="4.2" fill="#2f6c8f" fill-opacity="0.78" stroke="#163848" stroke-width="0.7" /><circle cx="416.77" cy="747.50" r="4.2" fill="#2f6c8f" fill-opacity="0.78" stroke="#163848" stroke-width="0.7" /><circle cx="391.03" cy="744.97" r="4.2" fill="#2f6c8f" fill-opacity="0.78" stroke="#163848" stroke-width="0.7" /><circle cx="405.36" cy="760.07" r="4.2" fill="#2f6c8f" fill-opacity="0.78" stroke="#163848" stroke-width="0.7" /><circle cx="392.39" cy="744.84" r="4.2" fill="#2f6c8f" fill-opacity="0.78" stroke="#163848" stroke-width="0.7" /><circle cx="401.95" cy="745.37" r="7" fill="#e07a1f" stroke="#8b3d09" stroke-width="1.5" /><circle cx="401.95" cy="745.37" r="11" fill="none" stroke="#e07a1f" stroke-width="1.2" stroke-dasharray="4 3" /></g><g transform="translate(480,660)"><rect x="9.0" y="9.0" width="222.0" height="202.0" rx="10" fill="#fffaf0" stroke="#66513a" /><text x="506" y="24" font-size="15" fill="#3f2d1b">Vuelo 14</text><text x="506" y="38" font-size="11" fill="#6e5740">Best: 0.00628619</text><rect x="506" y="702" width="188" height="162" fill="#f5efe2" stroke="#b89f7d" /><text x="506" y="206" font-size="10" fill="#6e5740">x [-2.09, 2.14]</text><text x="694" y="206" text-anchor="end" font-size="10" fill="#6e5740">y [-2.04, 2.02]</text><circle cx="645.82" cy="738.00" r="4.2" fill="#2f6c8f" fill-opacity="0.78" stroke="#163848" stroke-width="0.7" /><circle cx="638.00" cy="754.38" r="4.2" fill="#2f6c8f" fill-opacity="0.78" stroke="#163848" stroke-width="0.7" /><circle cx="640.44" cy="745.93" r="4.2" fill="#2f6c8f" fill-opacity="0.78" stroke="#163848" stroke-width="0.7" /><circle cx="639.34" cy="764.63" r="4.2" fill="#2f6c8f" fill-opacity="0.78" stroke="#163848" stroke-width="0.7" /><circle cx="629.54" cy="772.80" r="4.2" fill="#2f6c8f" fill-opacity="0.78" stroke="#163848" stroke-width="0.7" /><circle cx="637.48" cy="741.36" r="4.2" fill="#2f6c8f" fill-opacity="0.78" stroke="#163848" stroke-width="0.7" /><circle cx="646.00" cy="749.41" r="4.2" fill="#2f6c8f" fill-opacity="0.78" stroke="#163848" stroke-width="0.7" /><circle cx="640.14" cy="768.17" r="4.2" fill="#2f6c8f" fill-opacity="0.78" stroke="#163848" stroke-width="0.7" /><circle cx="643.26" cy="747.40" r="4.2" fill="#2f6c8f" fill-opacity="0.78" stroke="#163848" stroke-width="0.7" /><circle cx="618.12" cy="777.66" r="4.2" fill="#2f6c8f" fill-opacity="0.78" stroke="#163848" stroke-width="0.7" /><circle cx="633.88" cy="739.04" r="4.2" fill="#2f6c8f" fill-opacity="0.78" stroke="#163848" stroke-width="0.7" /><circle cx="636.80" cy="745.05" r="4.2" fill="#2f6c8f" fill-opacity="0.78" stroke="#163848" stroke-width="0.7" /><circle cx="645.82" cy="738.00" r="7" fill="#e07a1f" stroke="#8b3d09" stroke-width="1.5" /><circle cx="645.82" cy="738.00" r="11" fill="none" stroke="#e07a1f" stroke-width="1.2" stroke-dasharray="4 3" /></g><g transform="translate(720,660)"><rect x="9.0" y="9.0" width="222.0" height="202.0" rx="10" fill="#fffaf0" stroke="#66513a" /><text x="746" y="24" font-size="15" fill="#3f2d1b">Vuelo 15</text><text x="746" y="38" font-size="11" fill="#6e5740">Best: 0.00628619</text><rect x="746" y="702" width="188" height="162" fill="#f5efe2" stroke="#b89f7d" /><text x="746" y="206" font-size="10" fill="#6e5740">x [-2.09, 2.14]</text><text x="934" y="206" text-anchor="end" font-size="10" fill="#6e5740">y [-2.04, 2.02]</text><circle cx="886.73" cy="722.01" r="4.2" fill="#2f6c8f" fill-opacity="0.78" stroke="#163848" stroke-width="0.7" /><circle cx="889.36" cy="755.41" r="4.2" fill="#2f6c8f" fill-opacity="0.78" stroke="#163848" stroke-width="0.7" /><circle cx="878.72" cy="734.01" r="4.2" fill="#2f6c8f" fill-opacity="0.78" stroke="#163848" stroke-width="0.7" /><circle cx="886.45" cy="749.07" r="4.2" fill="#2f6c8f" fill-opacity="0.78" stroke="#163848" stroke-width="0.7" /><circle cx="866.12" cy="772.60" r="4.2" fill="#2f6c8f" fill-opacity="0.78" stroke="#163848" stroke-width="0.7" /><circle cx="881.69" cy="756.06" r="4.2" fill="#2f6c8f" fill-opacity="0.78" stroke="#163848" stroke-width="0.7" /><circle cx="879.15" cy="743.63" r="4.2" fill="#2f6c8f" fill-opacity="0.78" stroke="#163848" stroke-width="0.7" /><circle cx="862.07" cy="780.44" r="4.2" fill="#2f6c8f" fill-opacity="0.78" stroke="#163848" stroke-width="0.7" /><circle cx="876.45" cy="740.27" r="4.2" fill="#2f6c8f" fill-opacity="0.78" stroke="#163848" stroke-width="0.7" /><circle cx="871.82" cy="744.97" r="4.2" fill="#2f6c8f" fill-opacity="0.78" stroke="#163848" stroke-width="0.7" /><circle cx="871.32" cy="764.33" r="4.2" fill="#2f6c8f" fill-opacity="0.78" stroke="#163848" stroke-width="0.7" /><circle cx="895.93" cy="745.13" r="4.2" fill="#2f6c8f" fill-opacity="0.78" stroke="#163848" stroke-width="0.7" /><circle cx="885.82" cy="738.00" r="7" fill="#e07a1f" stroke="#8b3d09" stroke-width="1.5" /><circle cx="885.82" cy="738.00" r="11" fill="none" stroke="#e07a1f" stroke-width="1.2" stroke-dasharray="4 3" /></g><g transform="translate(0,880)"><rect x="9.0" y="9.0" width="222.0" height="202.0" rx="10" fill="#fffaf0" stroke="#66513a" /><text x="26" y="24" font-size="15" fill="#3f2d1b">Vuelo 16</text><text x="26" y="38" font-size="11" fill="#6e5740">Best: 0.00628619</text><rect x="26" y="922" width="188" height="162" fill="#f5efe2" stroke="#b89f7d" /><text x="26" y="206" font-size="10" fill="#6e5740">x [-2.09, 2.14]</text><text x="214" y="206" text-anchor="end" font-size="10" fill="#6e5740">y [-2.04, 2.02]</text><circle cx="167.21" cy="962.81" r="4.2" fill="#2f6c8f" fill-opacity="0.78" stroke="#163848" stroke-width="0.7" /><circle cx="159.30" cy="965.24" r="4.2" fill="#2f6c8f" fill-opacity="0.78" stroke="#163848" stroke-width="0.7" /><circle cx="167.76" cy="955.83" r="4.2" fill="#2f6c8f" fill-opacity="0.78" stroke="#163848" stroke-width="0.7" /><circle cx="163.48" cy="944.05" r="4.2" fill="#2f6c8f" fill-opacity="0.78" stroke="#163848" stroke-width="0.7" /><circle cx="151.36" cy="994.55" r="4.2" fill="#2f6c8f" fill-opacity="0.78" stroke="#163848" stroke-width="0.7" /><circle cx="165.17" cy="963.85" r="4.2" fill="#2f6c8f" fill-opacity="0.78" stroke="#163848" stroke-width="0.7" /><circle cx="158.02" cy="957.28" r="4.2" fill="#2f6c8f" fill-opacity="0.78" stroke="#163848" stroke-width="0.7" /><circle cx="137.95" cy="967.75" r="4.2" fill="#2f6c8f" fill-opacity="0.78" stroke="#163848" stroke-width="0.7" /><circle cx="171.37" cy="961.27" r="4.2" fill="#2f6c8f" fill-opacity="0.78" stroke="#163848" stroke-width="0.7" /><circle cx="165.44" cy="974.99" r="4.2" fill="#2f6c8f" fill-opacity="0.78" stroke="#163848" stroke-width="0.7" /><circle cx="166.99" cy="999.55" r="4.2" fill="#2f6c8f" fill-opacity="0.78" stroke="#163848" stroke-width="0.7" /><circle cx="179.02" cy="953.43" r="4.2" fill="#2f6c8f" fill-opacity="0.78" stroke="#163848" stroke-width="0.7" /><circle cx="165.82" cy="958.00" r="7" fill="#e07a1f" stroke="#8b3d09" stroke-width="1.5" /><circle cx="165.82" cy="958.00" r="11" fill="none" stroke="#e07a1f" stroke-width="1.2" stroke-dasharray="4 3" /></g><g transform="translate(240,880)"><rect x="9.0" y="9.0" width="222.0" height="202.0" rx="10" fill="#fffaf0" stroke="#66513a" /><text x="266" y="24" font-size="15" fill="#3f2d1b">Vuelo 17</text><text x="266" y="38" font-size="11" fill="#6e5740">Best: 0.00628619</text><rect x="266" y="922" width="188" height="162" fill="#f5efe2" stroke="#b89f7d" /><text x="266" y="206" font-size="10" fill="#6e5740">x [-2.09, 2.14]</text><text x="454" y="206" text-anchor="end" font-size="10" fill="#6e5740">y [-2.04, 2.02]</text><circle cx="403.13" cy="974.52" r="4.2" fill="#2f6c8f" fill-opacity="0.78" stroke="#163848" stroke-width="0.7" /><circle cx="397.80" cy="958.96" r="4.2" fill="#2f6c8f" fill-opacity="0.78" stroke="#163848" stroke-width="0.7" /><circle cx="409.79" cy="970.24" r="4.2" fill="#2f6c8f" fill-opacity="0.78" stroke="#163848" stroke-width="0.7" /><circle cx="390.47" cy="974.41" r="4.2" fill="#2f6c8f" fill-opacity="0.78" stroke="#163848" stroke-width="0.7" /><circle cx="382.29" cy="972.97" r="4.2" fill="#2f6c8f" fill-opacity="0.78" stroke="#163848" stroke-width="0.7" /><circle cx="394.60" cy="959.76" r="4.2" fill="#2f6c8f" fill-opacity="0.78" stroke="#163848" stroke-width="0.7" /><circle cx="409.57" cy="962.73" r="4.2" fill="#2f6c8f" fill-opacity="0.78" stroke="#163848" stroke-width="0.7" /><circle cx="414.36" cy="959.71" r="4.2" fill="#2f6c8f" fill-opacity="0.78" stroke="#163848" stroke-width="0.7" /><circle cx="402.39" cy="971.55" r="4.2" fill="#2f6c8f" fill-opacity="0.78" stroke="#163848" stroke-width="0.7" /><circle cx="397.70" cy="977.63" r="4.2" fill="#2f6c8f" fill-opacity="0.78" stroke="#163848" stroke-width="0.7" /><circle cx="416.07" cy="993.93" r="4.2" fill="#2f6c8f" fill-opacity="0.78" stroke="#163848" stroke-width="0.7" /><circle cx="382.61" cy="967.02" r="4.2" fill="#2f6c8f" fill-opacity="0.78" stroke="#163848" stroke-width="0.7" /><circle cx="405.82" cy="958.00" r="7" fill="#e07a1f" stroke="#8b3d09" stroke-width="1.5" /><circle cx="405.82" cy="958.00" r="11" fill="none" stroke="#e07a1f" stroke-width="1.2" stroke-dasharray="4 3" /></g><g transform="translate(480,880)"><rect x="9.0" y="9.0" width="222.0" height="202.0" rx="10" fill="#fffaf0" stroke="#66513a" /><text x="506" y="24" font-size="15" fill="#3f2d1b">Vuelo 18</text><text x="506" y="38" font-size="11" fill="#6e5740">Best: 0.00628619</text><rect x="506" y="922" width="188" height="162" fill="#f5efe2" stroke="#b89f7d" /><text x="506" y="206" font-size="10" fill="#6e5740">x [-2.09, 2.14]</text><text x="694" y="206" text-anchor="end" font-size="10" fill="#6e5740">y [-2.04, 2.02]</text><circle cx="646.29" cy="953.57" r="4.2" fill="#2f6c8f" fill-opacity="0.78" stroke="#163848" stroke-width="0.7" /><circle cx="640.82" cy="965.24" r="4.2" fill="#2f6c8f" fill-opacity="0.78" stroke="#163848" stroke-width="0.7" /><circle cx="645.27" cy="975.04" r="4.2" fill="#2f6c8f" fill-opacity="0.78" stroke="#163848" stroke-width="0.7" /><circle cx="637.77" cy="1000.49" r="4.2" fill="#2f6c8f" fill-opacity="0.78" stroke="#163848" stroke-width="0.7" /><circle cx="628.93" cy="978.32" r="4.2" fill="#2f6c8f" fill-opacity="0.78" stroke="#163848" stroke-width="0.7" /><circle cx="631.10" cy="982.95" r="4.2" fill="#2f6c8f" fill-opacity="0.78" stroke="#163848" stroke-width="0.7" /><circle cx="656.02" cy="964.95" r="4.2" fill="#2f6c8f" fill-opacity="0.78" stroke="#163848" stroke-width="0.7" /><circle cx="644.23" cy="960.32" r="4.2" fill="#2f6c8f" fill-opacity="0.78" stroke="#163848" stroke-width="0.7" /><circle cx="637.29" cy="954.56" r="4.2" fill="#2f6c8f" fill-opacity="0.78" stroke="#163848" stroke-width="0.7" /><circle cx="632.50" cy="973.34" r="4.2" fill="#2f6c8f" fill-opacity="0.78" stroke="#163848" stroke-width="0.7" /><circle cx="619.66" cy="972.62" r="4.2" fill="#2f6c8f" fill-opacity="0.78" stroke="#163848" stroke-width="0.7" /><circle cx="629.09" cy="962.68" r="4.2" fill="#2f6c8f" fill-opacity="0.78" stroke="#163848" stroke-width="0.7" /><circle cx="645.82" cy="958.00" r="7" fill="#e07a1f" stroke="#8b3d09" stroke-width="1.5" /><circle cx="645.82" cy="958.00" r="11" fill="none" stroke="#e07a1f" stroke-width="1.2" stroke-dasharray="4 3" /></g><g transform="translate(720,880)"><rect x="9.0" y="9.0" width="222.0" height="202.0" rx="10" fill="#fffaf0" stroke="#66513a" /><text x="746" y="24" font-size="15" fill="#3f2d1b">Vuelo 19</text><text x="746" y="38" font-size="11" fill="#6e5740">Best: 0.00628619</text><rect x="746" y="922" width="188" height="162" fill="#f5efe2" stroke="#b89f7d" /><text x="746" y="206" font-size="10" fill="#6e5740">x [-2.09, 2.14]</text><text x="934" y="206" text-anchor="end" font-size="10" fill="#6e5740">y [-2.04, 2.02]</text><circle cx="887.51" cy="948.61" r="4.2" fill="#2f6c8f" fill-opacity="0.78" stroke="#163848" stroke-width="0.7" /><circle cx="883.23" cy="962.98" r="4.2" fill="#2f6c8f" fill-opacity="0.78" stroke="#163848" stroke-width="0.7" /><circle cx="877.69" cy="959.00" r="4.2" fill="#2f6c8f" fill-opacity="0.78" stroke="#163848" stroke-width="0.7" /><circle cx="886.29" cy="994.16" r="4.2" fill="#2f6c8f" fill-opacity="0.78" stroke="#163848" stroke-width="0.7" /><circle cx="889.93" cy="968.16" r="4.2" fill="#2f6c8f" fill-opacity="0.78" stroke="#163848" stroke-width="0.7" /><circle cx="892.84" cy="993.81" r="4.2" fill="#2f6c8f" fill-opacity="0.78" stroke="#163848" stroke-width="0.7" /><circle cx="859.60" cy="967.50" r="4.2" fill="#2f6c8f" fill-opacity="0.78" stroke="#163848" stroke-width="0.7" /><circle cx="878.18" cy="958.30" r="4.2" fill="#2f6c8f" fill-opacity="0.78" stroke="#163848" stroke-width="0.7" /><circle cx="882.26" cy="960.98" r="4.2" fill="#2f6c8f" fill-opacity="0.78" stroke="#163848" stroke-width="0.7" /><circle cx="881.75" cy="989.64" r="4.2" fill="#2f6c8f" fill-opacity="0.78" stroke="#163848" stroke-width="0.7" /><circle cx="855.06" cy="959.34" r="4.2" fill="#2f6c8f" fill-opacity="0.78" stroke="#163848" stroke-width="0.7" /><circle cx="883.35" cy="955.82" r="4.2" fill="#2f6c8f" fill-opacity="0.78" stroke="#163848" stroke-width="0.7" /><circle cx="885.82" cy="958.00" r="7" fill="#e07a1f" stroke="#8b3d09" stroke-width="1.5" /><circle cx="885.82" cy="958.00" r="11" fill="none" stroke="#e07a1f" stroke-width="1.2" stroke-dasharray="4 3" /></g><g transform="translate(0,1100)"><rect x="9.0" y="9.0" width="222.0" height="202.0" rx="10" fill="#fffaf0" stroke="#66513a" /><text x="26" y="24" font-size="15" fill="#3f2d1b">Vuelo 20</text><text x="26" y="38" font-size="11" fill="#6e5740">Best: 0.00628619</text><rect x="26" y="1142" width="188" height="162" fill="#f5efe2" stroke="#b89f7d" /><text x="26" y="206" font-size="10" fill="#6e5740">x [-2.09, 2.14]</text><text x="214" y="206" text-anchor="end" font-size="10" fill="#6e5740">y [-2.04, 2.02]</text><circle cx="166.63" cy="1177.83" r="4.2" fill="#2f6c8f" fill-opacity="0.78" stroke="#163848" stroke-width="0.7" /><circle cx="165.43" cy="1176.73" r="4.2" fill="#2f6c8f" fill-opacity="0.78" stroke="#163848" stroke-width="0.7" /><circle cx="159.55" cy="1171.73" r="4.2" fill="#2f6c8f" fill-opacity="0.78" stroke="#163848" stroke-width="0.7" /><circle cx="161.56" cy="1181.47" r="4.2" fill="#2f6c8f" fill-opacity="0.78" stroke="#163848" stroke-width="0.7" /><circle cx="179.01" cy="1199.15" r="4.2" fill="#2f6c8f" fill-opacity="0.78" stroke="#163848" stroke-width="0.7" /><circle cx="150.52" cy="1202.02" r="4.2" fill="#2f6c8f" fill-opacity="0.78" stroke="#163848" stroke-width="0.7" /><circle cx="135.61" cy="1182.21" r="4.2" fill="#2f6c8f" fill-opacity="0.78" stroke="#163848" stroke-width="0.7" /><circle cx="160.63" cy="1178.61" r="4.2" fill="#2f6c8f" fill-opacity="0.78" stroke="#163848" stroke-width="0.7" /><circle cx="165.66" cy="1189.41" r="4.2" fill="#2f6c8f" fill-opacity="0.78" stroke="#163848" stroke-width="0.7" /><circle cx="152.64" cy="1201.39" r="4.2" fill="#2f6c8f" fill-opacity="0.78" stroke="#163848" stroke-width="0.7" /><circle cx="159.96" cy="1205.61" r="4.2" fill="#2f6c8f" fill-opacity="0.78" stroke="#163848" stroke-width="0.7" /><circle cx="175.01" cy="1177.80" r="4.2" fill="#2f6c8f" fill-opacity="0.78" stroke="#163848" stroke-width="0.7" /><circle cx="165.82" cy="1178.00" r="7" fill="#e07a1f" stroke="#8b3d09" stroke-width="1.5" /><circle cx="165.82" cy="1178.00" r="11" fill="none" stroke="#e07a1f" stroke-width="1.2" stroke-dasharray="4 3" /></g>
</svg>
